PathFileType	4	(X/Y/Z)	c:\Git\powerlifing_model_clean\simulations\HC835B\Session1\HC835B_OGR_0004\marker_experimental.trc
DataRate	CameraRate	NumFrames	NumMarkers	Units	OrigDataRate	OrigDataStartFrame	OrigNumFrames
240.000000	240.000000	4	38	mm	240.000000	81	217
Frame#	Time	RPSI			LPSI			RASI			LASI			RTH1			RTH2			RTH3			RTH4			RSK1			RSK2			RSK3			RSK4			RCAL1			RCAL2			RCAL3			RST			RPT			RTN			RFMB			RSMB			RVMB			RFMH			RSMH			RVMH			RPM			LTH1			LTH2			LTH3			LTH4			LSK1			LSK2			LSK3			LSK4			LCAL1			LCAL2			LCAL3			LFMH			LVMH			
		X1	Y1	Z1	X2	Y2	Z2	X3	Y3	Z3	X4	Y4	Z4	X5	Y5	Z5	X6	Y6	Z6	X7	Y7	Z7	X8	Y8	Z8	X9	Y9	Z9	X10	Y10	Z10	X11	Y11	Z11	X12	Y12	Z12	X13	Y13	Z13	X14	Y14	Z14	X15	Y15	Z15	X16	Y16	Z16	X17	Y17	Z17	X18	Y18	Z18	X19	Y19	Z19	X20	Y20	Z20	X21	Y21	Z21	X22	Y22	Z22	X23	Y23	Z23	X24	Y24	Z24	X25	Y25	Z25	X26	Y26	Z26	X27	Y27	Z27	X28	Y28	Z28	X29	Y29	Z29	X30	Y30	Z30	X31	Y31	Z31	X32	Y32	Z32	X33	Y33	Z33	X34	Y34	Z34	X35	Y35	Z35	X36	Y36	Z36	X37	Y37	Z37	X38	Y38	Z38	

82	0.3375	493.0349121093751	1217.197265625	-706.3623046875001	384.6566772460939	1216.032958984375	-700.6204833984376	548.9823608398439	1113.510986328125	-891.192565917969	316.3242797851563	1142.802124023438	-890.050964355469	623.9882812500001	879.2005004882815	-700.7285766601564	615.5987548828126	843.593200683594	-749.5989379882814	612.8264160156251	796.0269165039065	-687.2506103515626	594.3839721679689	763.0927734375001	-731.7176513671876	573.4724121093751	440.1865844726564	-396.4312438964845	575.9425048828126	396.3905639648439	-439.6666564941407	569.5859375000001	383.7243041992188	-380.3871765136719	560.1527099609376	342.0639953613282	-422.5388183593751	506.8696594238282	314.9890747070313	-275.4178771972657	463.806854248047	296.9342956542969	-259.7312622070313	524.4638671875001	289.1125183105469	-238.2364501953126	459.0290832519532	247.2827148437501	-310.2001953125001	550.9268798828126	239.0673828125001	-269.8377990722657	479.9356994628907	207.5809631347657	-350.4121704101563	476.3730468750001	170.8200225830078	-349.0123596191407	529.4072875976564	164.6871337890625	-359.4056701660157	551.4255371093751	186.425537109375	-268.0364990234376	461.5317993164064	109.1856765747071	-350.4660034179688	516.9235229492189	96.60645294189456	-354.7878112792969	561.1118774414064	110.956527709961	-293.9314880371094	504.6399536132814	45.46368408203126	-380.0733032226563	253.9334716796876	876.469665527344	-899.5054321289065	257.8520812988282	889.941345214844	-958.885681152344	262.0669250488282	809.1706542968752	-951.4923095703127	281.9405517578126	823.4996337890627	-1008.419616699219	301.9306640625001	394.2625122070314	-867.327087402344	297.2285461425782	363.2576904296876	-912.0864868164065	306.9694519042969	336.3077697753907	-871.1856689453127	314.8545532226563	309.1392517089844	-919.6818847656252	369.1633605957032	203.4298706054688	-782.4009399414065	340.5456848144532	164.2090911865235	-776.4285278320315	399.4098205566407	166.7404174804688	-782.8144531250002	397.1467590332032	134.4009704589844	-1000.764343261719	296.9570007324219	107.9575881958008	-957.0564575195315	
83	0.3416666666666667	493.273406982422	1219.44970703125	-721.3859863281251	384.7662963867189	1217.961181640625	-715.5939331054689	548.8414916992189	1115.203735351563	-905.7288818359377	316.7966003417969	1145.22265625	-905.3531494140627	624.0871582031251	881.318054199219	-714.1689453125001	616.3456420898439	845.5233154296877	-763.0413208007814	613.0436401367189	798.4000244140627	-700.4470825195314	595.3710937500001	764.9502563476564	-745.1553344726564	575.1082763671876	445.0853881835939	-406.8319702148439	576.1887207031251	400.1244201660157	-449.1628417968751	570.9843750000001	389.0571289062501	-389.6092834472657	560.6274414062501	346.6593933105469	-430.7210998535157	507.5181274414064	323.0251464843751	-282.6015930175782	464.7693786621095	304.6893920898438	-266.3215332031251	525.2953491210939	297.7371520996094	-244.957504272461	460.1963806152345	253.8038940429688	-315.6065979003907	553.0744628906251	248.0484161376954	-275.7818908691407	481.3630676269532	213.2458190917969	-354.1221313476563	478.5806884765626	176.7698059082032	-352.8431396484376	531.9970703125001	171.6843566894532	-364.6917114257813	554.0853271484376	195.3795776367188	-272.7751464843751	464.844451904297	114.80419921875	-352.7830505371094	520.4037475585939	103.043212890625	-357.4006042480469	564.8950195312501	119.4938659667969	-297.1639099121094	508.9084472656251	51.09058761596681	-381.2463073730469	255.279281616211	875.8789672851565	-911.747741699219	259.1231384277344	888.9812011718752	-971.2354736328127	263.4982604980469	808.1230468750002	-963.3201293945315	283.2723693847657	822.331481933594	-1020.343078613281	302.7477416992188	388.1976928710939	-888.3309326171877	298.1873168945313	358.6216430664063	-934.4905395507815	307.8355102539063	330.6506347656251	-894.2666625976565	315.8456726074219	304.9856567382813	-943.872985839844	370.2612915039063	193.529769897461	-811.0122070312502	341.7013244628907	154.2164154052735	-806.5232543945315	400.4895324707032	156.927978515625	-812.850280761719	398.0512695312501	133.8109436035157	-1032.027587890625	297.7604064941407	105.9464263916016	-989.424255371094	
84	0.3458333333333333	493.493133544922	1221.47607421875	-736.4240112304689	384.9599609375001	1219.697631835938	-730.5464477539064	548.8153686523439	1116.869750976563	-920.2540283203127	317.2805786132813	1147.33935546875	-920.5106201171877	624.2033691406251	883.0422363281252	-728.0393066406251	617.0004882812501	847.1646118164065	-776.9058227539065	613.2166748046876	800.1611328125002	-714.2106933593751	596.0045166015626	766.5362548828126	-758.9752807617189	576.3379516601564	450.1744689941407	-417.2808532714845	576.7977905273439	404.2706909179689	-458.5390625000001	572.2485961914064	394.6324462890626	-398.7019042968751	561.1434326171876	351.4110412597657	-438.7527465820314	508.191619873047	330.9597473144532	-289.5620422363282	465.9134826660157	312.2584533691407	-272.5132751464844	526.8416137695314	306.9414062500001	-251.4261779785157	461.7915649414064	260.6169738769532	-320.9836730957032	554.8361816406251	256.7711181640626	-281.5715332031251	482.9700927734376	219.3250732421876	-359.0223388671876	480.9697875976564	183.0909271240235	-356.8718261718751	534.3989257812501	178.6980133056641	-369.0925903320313	556.6449584960939	204.2257232666016	-277.7275390625001	468.2789916992189	120.4238510131836	-355.0575256347657	523.9519042968751	109.890495300293	-360.5282592773438	568.4459228515626	128.1064758300782	-300.7909240722657	512.8547973632814	57.1241912841797	-383.1481018066407	256.4862976074219	874.9207763671877	-923.9276123046877	260.3846435546876	887.7080078125002	-983.4517211914065	264.8400878906251	806.9317016601565	-974.9353027343752	284.4959716796876	820.5515136718752	-1032.055053710938	303.4325256347657	382.2163696289063	-909.7061767578127	298.9861145019532	354.4216613769532	-956.624938964844	308.6824645996094	324.9552612304688	-917.4862060546877	316.9696044921876	301.4375305175782	-967.8359375000002	370.8252563476563	183.6631011962891	-840.239929199219	342.8022766113282	144.7560424804688	-836.7277832031252	401.5703735351564	147.6471252441407	-842.8936767578127	399.0422973632814	133.7605285644532	-1062.921508789063	298.7400817871094	104.3325653076172	-1021.353637695313	
85	0.35	493.7626037597657	1223.377685546875	-751.4769897460939	385.1502990722657	1221.159423828125	-745.5550537109376	548.8375244140626	1118.449584960938	-934.7169189453127	317.6920166015626	1149.051879882813	-935.402282714844	624.3139038085939	884.3415527343752	-742.3660888671876	617.4109497070314	848.3846435546877	-791.179382324219	613.3387451171876	801.465026855469	-728.4270629882814	596.3815917968751	767.7591552734376	-773.2752685546877	577.4965820312501	455.4598388671876	-427.5456848144532	577.3993530273439	408.6124877929689	-467.8181762695314	573.3032836914064	400.3545532226564	-407.6925659179689	561.7507324218751	356.3159790039063	-446.6383361816407	508.9430236816407	338.8771057128907	-296.3069763183594	467.0291442871095	319.9084472656251	-278.7292785644532	528.0326538085939	315.6430358886719	-257.8792419433594	463.2875061035157	267.3050537109376	-326.2780456542969	556.5495605468751	265.4891357421876	-287.4148864746094	485.0624084472657	226.3087615966797	-365.5769348144532	483.3201293945314	189.5301513671875	-361.3116149902344	536.9254760742189	185.1543426513672	-372.6857299804688	559.1484375000001	213.0070190429688	-282.7374267578126	471.7135009765626	126.9746856689453	-358.4042968750001	527.4207763671876	116.9225845336914	-363.9793701171876	571.8688964843751	136.7105712890625	-304.7278747558594	517.0560302734376	63.65697479248048	-385.7124328613282	257.5029296875001	873.6519775390627	-935.847595214844	261.5057373046876	885.8354492187502	-995.4991455078127	265.9727478027344	805.1461181640627	-986.3279418945315	285.7798767089844	818.446960449219	-1043.43359375	304.1092224121094	376.4512634277344	-930.8086547851565	299.5725402832032	351.0192260742188	-978.3814697265627	309.6726684570313	319.5253601074219	-940.733825683594	318.0659790039063	298.0997619628907	-991.9404296875002	371.9216918945313	174.973129272461	-868.760192871094	344.0209350585938	136.0000305175782	-866.8516845703127	402.7076416015626	139.1171569824219	-872.9412841796877	400.3138427734376	134.34912109375	-1093.337524414063	299.9021606445313	103.0146408081055	-1053.115966796875	
